<svg id="Capa_1" fill="#fff" enable-background="new 0 0 512.115 512.115" height="512" viewBox="0 0 512.115 512.115" width="512" xmlns="http://www.w3.org/2000/svg"><g><path d="m437.077 75.038c-100.042-100.042-261.981-100.06-362.039 0-100.044 100.044-100.059 261.98 0 362.039 100.04 100.042 261.98 100.059 362.039 0 100.043-100.042 100.059-261.98 0-362.039zm-340.826 21.213c84.082-84.082 219.459-88.411 308.646-10.246l-65.668 65.669c-9.919-6.012-21.146-9.048-32.39-9.094 3.265-15.183 12.601-29.572 17.024-35.04 5.224-6.412 4.273-15.846-2.131-21.085-6.41-5.245-15.862-4.302-21.107 2.111-1.082 1.322-23.881 29.613-24.891 62.059-9.696 5.441-13.839 10.507-27.068 23.736-11.426-6.151-24.914-6.925-36.733-2.615l-16.694-30.054c-4.023-7.241-13.155-9.853-20.396-5.828-7.242 4.022-9.852 13.154-5.829 20.396l18.748 33.751-16.948 16.948-23.335-23.335c-5.858-5.859-15.355-5.857-21.213 0-5.857 5.858-5.857 15.355 0 21.213l23.335 23.334c-12.44 12.441-14.01 13.849-17.572 18.073l-32.693-19.62c-7.104-4.264-16.317-1.961-20.581 5.143-4.263 7.104-1.96 16.317 5.143 20.58l32.656 19.598c-11.688 29.109-8.573 63.903 11.249 91.154l-41.797 41.798c-77.712-88.669-74.307-224.092 10.245-308.646zm154.465 257.079c-21.961 21.964-55.334 24.699-80.087 9.37l113.318-113.318c19.335 19.335-25.347-25.357 24.753 24.752 5.849 5.849 5.849 15.365 0 21.214zm-91.924-91.924 57.983-57.982c5.863-5.863 15.349-5.863 21.213 0 50.007 50.015 5.546 5.546 24.745 24.745l-113.315 113.315c-15.512-25.063-12.343-58.359 9.374-80.078zm124.451-79.196c9.048-9.047 22.082-11.723 33.497-8.047l-32.793 32.793-12.725-12.725zm46.669 46.67-12.021 12.02-12.731-12.731 32.797-32.797c3.681 11.418 1.005 24.457-8.045 33.508zm85.952 186.984c-84.553 84.552-219.977 87.956-308.646 10.246l41.795-41.796c27.507 20.015 62.345 22.819 91.161 11.251l19.6 32.659c2.812 4.688 7.78 7.283 12.876 7.283 11.531 0 18.879-12.67 12.847-22.721l-19.62-32.694c4.236-3.571 5.595-5.095 18.072-17.57l23.334 23.335c5.856 5.858 15.354 5.859 21.213 0 5.858-5.857 5.858-15.354 0-21.213l-23.334-23.335 16.949-16.949 33.75 18.748c7.227 4.016 16.365 1.429 20.396-5.828 4.023-7.242 1.414-16.374-5.828-20.396l-30.08-16.709c4.34-11.94 3.474-25.356-2.604-36.703 13.593-13.592 18.431-17.602 23.75-27.08 32.445-1.007 60.738-23.812 62.061-24.895 6.4-5.235 7.34-14.65 2.121-21.063s-14.657-7.383-21.087-2.181c-5.462 4.421-19.86 13.766-35.048 17.032-.046-11.247-3.084-22.479-9.099-32.399l65.667-65.668c77.71 88.67 74.306 224.093-10.246 308.646z"/></g></svg>