<?xml version="1.0" encoding="UTF-8"?>
<svg xmlns="http://www.w3.org/2000/svg" viewBox="0 0 780.37 780.37">
    <path fill="#FFFFFF" d="M701.53,154.98L400.03,456.49l-35.7,35.7-35.39-35.39-79.55-79.55,35.7-35.7,79.55,79.55L668.76,116.98C597.94,44.79,499.3,0,390.19,0,174.69,0,0,174.69,0,390.19s174.69,390.19,390.19,390.19,390.19-174.69,390.19-390.19c0-88.33-29.36-169.81-78.84-235.21Zm-311.33,490.23c-140.25,0-255-114.75-255-255s114.75-255,255-255c33.15,0,66.3,7.65,96.9,17.85l-40.8,40.8c-18.24-5.21-37.13-7.79-56.1-7.65-112.2,0-204,91.8-204,204s91.8,204,204,204,204-91.8,204-204h51c0,140.25-114.75,255-255,255Z"/>
</svg>
