<svg id="Ecommerce_Flat" enable-background="new 0 0 48 48" height="512" viewBox="0 0 48 48" width="512" xmlns="http://www.w3.org/2000/svg"><g><path d="m43.03 21.64-4.63-6.35c-1.51-2.07-3.91-3.29-6.47-3.29h-20.72c-4.42 0-8 3.58-8 8v8c0 4.42 3.58 8 8 8h20.72c2.56 0 4.96-1.22 6.47-3.29l4.63-6.35c1.03-1.41 1.03-3.31 0-4.72zm-7.03 5.36c-1.66 0-3-1.34-3-3s1.34-3 3-3 3 1.34 3 3-1.34 3-3 3z" fill="#ffe066"/><path d="m43.59 22.72c-1.4 1.3-2.91 2.2-4.34 2.61-.22.06-.43.11-.64.15-.51.91-1.49 1.52-2.61 1.52-1.66 0-3-1.34-3-3 0-1.01.49-1.89 1.25-2.43.49-.36 1.1-.57 1.75-.57.12 0 .23.01.35.03 1.27.14 2.3 1.08 2.57 2.31 1.15-.38 2.42-1.2 3.51-2.27l.11-.11.49.68c.24.33.43.7.56 1.08z" fill="none"/><path d="m39 24c0 .54-.14 1.05-.39 1.48-.51.91-1.49 1.52-2.61 1.52-1.66 0-3-1.34-3-3 0-1.01.49-1.89 1.25-2.43.49-.36 1.1-.57 1.75-.57.12 0 .23.01.35.03 1.27.14 2.3 1.08 2.57 2.31.05.21.08.43.08.66z" fill="none"/><g><path d="m43.9 22.43c-.1.1-.21.2-.31.29-1.4 1.3-2.91 2.2-4.34 2.61-.22.06-.43.11-.64.15-.34.06-.66.09-.97.09-1.01 0-1.86-.32-2.49-.94-.73-.72-1.05-1.8-.9-3.06.49-.36 1.1-.57 1.75-.57.12 0 .23.01.35.03 0 .09-.01.18-.03.27-.12.51-.25 1.43.24 1.91.4.39 1.18.47 2.14.2.07-.02.15-.04.22-.07 1.15-.38 2.42-1.2 3.51-2.27l.11-.11c2.29-2.35 3.01-5 2.14-5.86-.74-.75-3.02-.31-5.2 1.54-.02.02-.04.03-.06.04l-1.02-1.39c-.05-.07-.11-.14-.16-.21 2.92-2.45 6.22-3.04 7.86-1.4 1.83 1.84.87 5.68-2.2 8.75z" fill="#50514f"/></g><path d="m43.66 23.051c-.027-.11-.033-.223-.07-.331-1.4 1.3-2.91 2.2-4.34 2.61-.22.06-.43.11-.64.15-.085.151-.187.29-.296.423.1-.013.192-.009.296-.027.21-.04.42-.09.64-.15 1.43-.41 2.94-1.31 4.34-2.61.022-.02.046-.044.07-.065z" fill="#ccad66"/><path d="m38.735 26.23c.149-.257.244-.548.309-.852-.145.036-.291.075-.434.102-.51.91-1.49 1.52-2.61 1.52-1.365 0-2.5-.912-2.866-2.157.05 1.616 1.363 2.907 2.991 2.907 1.12 0 2.1-.61 2.61-1.52z" fill="#ccad66"/><g fill="#f25f5c"><path d="m13.55 19.496c-.552 0-1 .448-1 1v3.654l-2.983-4.23c-.251-.357-.703-.51-1.12-.377-.415.131-.697.517-.697.953v6.808c0 .552.448 1 1 1s1-.448 1-1v-3.654l2.983 4.23c.191.271.499.424.817.424.101 0 .203-.015.302-.047.416-.132.698-.517.698-.953v-6.808c0-.553-.447-1-1-1z"/><path d="m19.803 26.303h-2.344v-1.404h2.02c.552 0 1-.448 1-1s-.448-1-1-1h-2.019v-1.403h2.186c.552 0 1-.448 1-1s-.448-1-1-1h-3.188-.001c-.552.001-.999.448-.999 1 0 .023.001.047.002.07l-.002 6.737c0 .266.106.52.294.708s.443.293.708.293h3.342c.552 0 1-.448 1-1s-.447-1.001-.999-1.001z"/><path d="m30.907 19.573c-.527-.137-1.08.183-1.218.719l-.943 3.665-1.401-3.819c-.145-.394-.52-.655-.938-.655s-.794.262-.938.655l-1.402 3.819-.943-3.665c-.138-.535-.68-.858-1.218-.719-.535.138-.856.683-.719 1.218l1.744 6.775c.109.424.481.728.918.749.43.021.837-.243.989-.654l1.569-4.276 1.569 4.276c.145.395.521.655.938.655.017 0 .033 0 .05-.001.438-.021.81-.325.919-.749l1.744-6.775c.138-.536-.185-1.081-.72-1.218z"/></g></g></svg>